<svg width="20" height="19" viewBox="0 0 26 25" fill="none" xmlns="http://www.w3.org/2000/svg">
	<path
		d="M23.1562 20.3125H2.84375C2.63655 20.3125 2.43784 20.3948 2.29132 20.5413C2.14481 20.6878 2.0625 20.8865 2.0625 21.0938V22.6562C2.0625 22.8635 2.14481 23.0622 2.29132 23.2087C2.43784 23.3552 2.63655 23.4375 2.84375 23.4375H23.1562C23.3635 23.4375 23.5622 23.3552 23.7087 23.2087C23.8552 23.0622 23.9375 22.8635 23.9375 22.6562V21.0938C23.9375 20.8865 23.8552 20.6878 23.7087 20.5413C23.5622 20.3948 23.3635 20.3125 23.1562 20.3125ZM23.1562 14.0625H2.84375C2.63655 14.0625 2.43784 14.1448 2.29132 14.2913C2.14481 14.4378 2.0625 14.6365 2.0625 14.8438V16.4062C2.0625 16.6135 2.14481 16.8122 2.29132 16.9587C2.43784 17.1052 2.63655 17.1875 2.84375 17.1875H23.1562C23.3635 17.1875 23.5622 17.1052 23.7087 16.9587C23.8552 16.8122 23.9375 16.6135 23.9375 16.4062V14.8438C23.9375 14.6365 23.8552 14.4378 23.7087 14.2913C23.5622 14.1448 23.3635 14.0625 23.1562 14.0625ZM23.1562 7.8125H2.84375C2.63655 7.8125 2.43784 7.89481 2.29132 8.04132C2.14481 8.18784 2.0625 8.38655 2.0625 8.59375V10.1562C2.0625 10.3635 2.14481 10.5622 2.29132 10.7087C2.43784 10.8552 2.63655 10.9375 2.84375 10.9375H23.1562C23.3635 10.9375 23.5622 10.8552 23.7087 10.7087C23.8552 10.5622 23.9375 10.3635 23.9375 10.1562V8.59375C23.9375 8.38655 23.8552 8.18784 23.7087 8.04132C23.5622 7.89481 23.3635 7.8125 23.1562 7.8125ZM23.1562 1.5625H2.84375C2.63655 1.5625 2.43784 1.64481 2.29132 1.79132C2.14481 1.93784 2.0625 2.13655 2.0625 2.34375V3.90625C2.0625 4.11345 2.14481 4.31216 2.29132 4.45868C2.43784 4.60519 2.63655 4.6875 2.84375 4.6875H23.1562C23.3635 4.6875 23.5622 4.60519 23.7087 4.45868C23.8552 4.31216 23.9375 4.11345 23.9375 3.90625V2.34375C23.9375 2.13655 23.8552 1.93784 23.7087 1.79132C23.5622 1.64481 23.3635 1.5625 23.1562 1.5625Z"
		fill="black" />
</svg>