<svg width="20" height="19" viewBox="0 0 26 25" fill="none" xmlns="http://www.w3.org/2000/svg">
	<path
		d="M23.1562 7.8125H2.84375C2.63655 7.8125 2.43784 7.89481 2.29132 8.04132C2.14481 8.18784 2.0625 8.38655 2.0625 8.59375V10.1562C2.0625 10.3635 2.14481 10.5622 2.29132 10.7087C2.43784 10.8552 2.63655 10.9375 2.84375 10.9375H23.1562C23.3635 10.9375 23.5622 10.8552 23.7087 10.7087C23.8552 10.5622 23.9375 10.3635 23.9375 10.1562V8.59375C23.9375 8.38655 23.8552 8.18784 23.7087 8.04132C23.5622 7.89481 23.3635 7.8125 23.1562 7.8125ZM23.1562 20.3125H2.84375C2.63655 20.3125 2.43784 20.3948 2.29132 20.5413C2.14481 20.6878 2.0625 20.8865 2.0625 21.0938V22.6562C2.0625 22.8635 2.14481 23.0622 2.29132 23.2087C2.43784 23.3552 2.63655 23.4375 2.84375 23.4375H23.1562C23.3635 23.4375 23.5622 23.3552 23.7087 23.2087C23.8552 23.0622 23.9375 22.8635 23.9375 22.6562V21.0938C23.9375 20.8865 23.8552 20.6878 23.7087 20.5413C23.5622 20.3948 23.3635 20.3125 23.1562 20.3125ZM7.34082 4.6875H18.6597C18.7372 4.6875 18.814 4.67221 18.8857 4.64252C18.9573 4.61282 19.0224 4.56929 19.0773 4.51442C19.1321 4.45955 19.1756 4.39442 19.2052 4.32274C19.2348 4.25106 19.2501 4.17424 19.25 4.09668V2.15283C19.25 2.07531 19.2347 1.99854 19.2051 1.92692C19.1754 1.8553 19.1319 1.79022 19.0771 1.7354C19.0223 1.68059 18.9572 1.6371 18.8856 1.60744C18.814 1.57777 18.7372 1.5625 18.6597 1.5625H7.34082C7.26326 1.56244 7.18644 1.57766 7.11476 1.6073C7.04308 1.63693 6.97795 1.68041 6.92308 1.73523C6.86821 1.79006 6.82468 1.85515 6.79498 1.92681C6.76529 1.99846 6.75 2.07527 6.75 2.15283V4.09668C6.75 4.25338 6.81225 4.40365 6.92305 4.51445C7.03385 4.62525 7.18412 4.6875 7.34082 4.6875ZM18.6597 17.1875C18.7372 17.1875 18.814 17.1722 18.8857 17.1425C18.9573 17.1128 19.0224 17.0693 19.0773 17.0144C19.1321 16.9596 19.1756 16.8944 19.2052 16.8227C19.2348 16.7511 19.2501 16.6742 19.25 16.5967V14.6528C19.25 14.4963 19.1878 14.3461 19.0771 14.2354C18.9664 14.1247 18.8162 14.0625 18.6597 14.0625H7.34082C7.26326 14.0624 7.18644 14.0777 7.11476 14.1073C7.04308 14.1369 6.97795 14.1804 6.92308 14.2352C6.86821 14.2901 6.82468 14.3552 6.79498 14.4268C6.76529 14.4985 6.75 14.5753 6.75 14.6528V16.5967C6.75 16.6743 6.76528 16.7511 6.79497 16.8228C6.82467 16.8945 6.86818 16.9596 6.92305 17.0145C6.97791 17.0693 7.04304 17.1128 7.11472 17.1425C7.1864 17.1722 7.26323 17.1875 7.34082 17.1875H18.6597Z"
		fill="black" />
</svg>