<svg width="20" height="19" viewBox="0 0 26 25" fill="none" xmlns="http://www.w3.org/2000/svg">
	<path
		d="M2.84375 10.9375H23.1562C23.3635 10.9375 23.5622 10.8552 23.7087 10.7087C23.8552 10.5622 23.9375 10.3635 23.9375 10.1562V8.59375C23.9375 8.38655 23.8552 8.18784 23.7087 8.04132C23.5622 7.89481 23.3635 7.8125 23.1562 7.8125H2.84375C2.63655 7.8125 2.43784 7.89481 2.29132 8.04132C2.14481 8.18784 2.0625 8.38655 2.0625 8.59375V10.1562C2.0625 10.3635 2.14481 10.5622 2.29132 10.7087C2.43784 10.8552 2.63655 10.9375 2.84375 10.9375ZM23.1562 20.3125H2.84375C2.63655 20.3125 2.43784 20.3948 2.29132 20.5413C2.14481 20.6878 2.0625 20.8865 2.0625 21.0938V22.6562C2.0625 22.8635 2.14481 23.0622 2.29132 23.2087C2.43784 23.3552 2.63655 23.4375 2.84375 23.4375H23.1562C23.3635 23.4375 23.5622 23.3552 23.7087 23.2087C23.8552 23.0622 23.9375 22.8635 23.9375 22.6562V21.0938C23.9375 20.8865 23.8552 20.6878 23.7087 20.5413C23.5622 20.3948 23.3635 20.3125 23.1562 20.3125ZM23.311 1.5625H10.5015C10.4192 1.56244 10.3377 1.5786 10.2617 1.61006C10.1856 1.64152 10.1165 1.68766 10.0583 1.74584C10.0002 1.80403 9.95402 1.87312 9.92256 1.94915C9.8911 2.02519 9.87494 2.10668 9.875 2.18897V4.06104C9.87494 4.14332 9.8911 4.22481 9.92256 4.30085C9.95402 4.37688 10.0002 4.44597 10.0583 4.50416C10.1165 4.56234 10.1856 4.60848 10.2617 4.63994C10.3377 4.6714 10.4192 4.68756 10.5015 4.6875H23.311C23.3933 4.68756 23.4748 4.6714 23.5508 4.63994C23.6269 4.60848 23.696 4.56234 23.7542 4.50416C23.8123 4.44597 23.8585 4.37688 23.8899 4.30085C23.9214 4.22481 23.9376 4.14332 23.9375 4.06104V2.18897C23.9376 2.10668 23.9214 2.02519 23.8899 1.94915C23.8585 1.87312 23.8123 1.80403 23.7542 1.74584C23.696 1.68766 23.6269 1.64152 23.5508 1.61006C23.4748 1.5786 23.3933 1.56244 23.311 1.5625ZM23.311 14.0625H10.5015C10.4192 14.0624 10.3377 14.0786 10.2617 14.1101C10.1856 14.1415 10.1165 14.1877 10.0583 14.2458C10.0002 14.304 9.95402 14.3731 9.92256 14.4492C9.8911 14.5252 9.87494 14.6067 9.875 14.689V16.561C9.87494 16.6433 9.8911 16.7248 9.92256 16.8008C9.95402 16.8769 10.0002 16.946 10.0583 17.0042C10.1165 17.0623 10.1856 17.1085 10.2617 17.1399C10.3377 17.1714 10.4192 17.1876 10.5015 17.1875H23.311C23.3933 17.1876 23.4748 17.1714 23.5508 17.1399C23.6269 17.1085 23.696 17.0623 23.7542 17.0042C23.8123 16.946 23.8585 16.8769 23.8899 16.8008C23.9214 16.7248 23.9376 16.6433 23.9375 16.561V14.689C23.9376 14.6067 23.9214 14.5252 23.8899 14.4492C23.8585 14.3731 23.8123 14.304 23.7542 14.2458C23.696 14.1877 23.6269 14.1415 23.5508 14.1101C23.4748 14.0786 23.3933 14.0624 23.311 14.0625Z"
		fill="black" />
</svg>