<svg width="20" height="19" viewBox="0 0 26 25" fill="none" xmlns="http://www.w3.org/2000/svg">
	<path
		d="M2.68897 17.1875H15.4985C15.5808 17.1876 15.6623 17.1714 15.7383 17.1399C15.8144 17.1085 15.8835 17.0623 15.9417 17.0042C15.9998 16.946 16.046 16.8769 16.0774 16.8008C16.1089 16.7248 16.1251 16.6433 16.125 16.561V14.689C16.1251 14.6067 16.1089 14.5252 16.0774 14.4492C16.046 14.3731 15.9998 14.304 15.9417 14.2458C15.8835 14.1877 15.8144 14.1415 15.7383 14.1101C15.6623 14.0786 15.5808 14.0624 15.4985 14.0625H2.68897C2.60668 14.0624 2.52519 14.0786 2.44915 14.1101C2.37312 14.1415 2.30403 14.1877 2.24584 14.2458C2.18766 14.304 2.14152 14.3731 2.11006 14.4492C2.0786 14.5252 2.06244 14.6067 2.0625 14.689V16.561C2.06244 16.6433 2.0786 16.7248 2.11006 16.8008C2.14152 16.8769 2.18766 16.946 2.24584 17.0042C2.30403 17.0623 2.37312 17.1085 2.44915 17.1399C2.52519 17.1714 2.60668 17.1876 2.68897 17.1875ZM2.68897 4.6875H15.4985C15.5808 4.68756 15.6623 4.6714 15.7383 4.63994C15.8144 4.60848 15.8835 4.56234 15.9417 4.50416C15.9998 4.44597 16.046 4.37688 16.0774 4.30085C16.1089 4.22481 16.1251 4.14332 16.125 4.06104V2.18897C16.1251 2.10668 16.1089 2.02519 16.0774 1.94915C16.046 1.87312 15.9998 1.80403 15.9417 1.74584C15.8835 1.68766 15.8144 1.64152 15.7383 1.61006C15.6623 1.5786 15.5808 1.56244 15.4985 1.5625H2.68897C2.60668 1.56244 2.52519 1.5786 2.44915 1.61006C2.37312 1.64152 2.30403 1.68766 2.24584 1.74584C2.18766 1.80403 2.14152 1.87312 2.11006 1.94915C2.0786 2.02519 2.06244 2.10668 2.0625 2.18897V4.06104C2.06244 4.14332 2.0786 4.22481 2.11006 4.30085C2.14152 4.37688 2.18766 4.44597 2.24584 4.50416C2.30403 4.56234 2.37312 4.60848 2.44915 4.63994C2.52519 4.6714 2.60668 4.68756 2.68897 4.6875ZM23.1562 7.8125H2.84375C2.63655 7.8125 2.43784 7.89481 2.29132 8.04132C2.14481 8.18784 2.0625 8.38655 2.0625 8.59375V10.1562C2.0625 10.3635 2.14481 10.5622 2.29132 10.7087C2.43784 10.8552 2.63655 10.9375 2.84375 10.9375H23.1562C23.3635 10.9375 23.5622 10.8552 23.7087 10.7087C23.8552 10.5622 23.9375 10.3635 23.9375 10.1562V8.59375C23.9375 8.38655 23.8552 8.18784 23.7087 8.04132C23.5622 7.89481 23.3635 7.8125 23.1562 7.8125ZM23.1562 20.3125H2.84375C2.63655 20.3125 2.43784 20.3948 2.29132 20.5413C2.14481 20.6878 2.0625 20.8865 2.0625 21.0938V22.6562C2.0625 22.8635 2.14481 23.0622 2.29132 23.2087C2.43784 23.3552 2.63655 23.4375 2.84375 23.4375H23.1562C23.3635 23.4375 23.5622 23.3552 23.7087 23.2087C23.8552 23.0622 23.9375 22.8635 23.9375 22.6562V21.0938C23.9375 20.8865 23.8552 20.6878 23.7087 20.5413C23.5622 20.3948 23.3635 20.3125 23.1562 20.3125Z"
		fill="black" />
</svg>