<svg width="25" height="26" viewBox="0 0 25 26" fill="none" xmlns="http://www.w3.org/2000/svg">
<path d="M12.1094 0.890625C18.7988 0.890625 24.2188 6.31055 24.2188 13C24.2188 19.6895 18.7988 25.1094 12.1094 25.1094C5.41992 25.1094 0 19.6895 0 13C0 6.31055 5.41992 0.890625 12.1094 0.890625ZM10.6982 7.90234L14.3848 11.4375H5.46875C4.81934 11.4375 4.29688 11.96 4.29688 12.6094V13.3906C4.29688 14.04 4.81934 14.5625 5.46875 14.5625H14.3848L10.6982 18.0977C10.2246 18.5518 10.2148 19.3086 10.6787 19.7725L11.2158 20.3047C11.6748 20.7637 12.417 20.7637 12.8711 20.3047L19.3506 13.8301C19.8096 13.3711 19.8096 12.6289 19.3506 12.1748L12.8711 5.69043C12.4121 5.23145 11.6699 5.23145 11.2158 5.69043L10.6787 6.22266C10.2148 6.69141 10.2246 7.44824 10.6982 7.90234Z" fill="white"/>
</svg>
