<svg width="20" height="19" viewBox="0 0 26 25" fill="none" xmlns="http://www.w3.org/2000/svg">
	<path
		d="M19.9087 11.6211C20.6523 10.7128 21.1109 9.60508 21.2271 8.43701C21.5874 4.71143 18.6641 1.5625 15.0225 1.5625H5.28516C5.07796 1.5625 4.87924 1.64481 4.73273 1.79132C4.58622 1.93784 4.50391 2.13655 4.50391 2.34375V4.6875C4.50391 4.8947 4.58622 5.09341 4.73273 5.23993C4.87924 5.38644 5.07796 5.46875 5.28516 5.46875H6.84131V19.5312H5.28516C5.07796 19.5312 4.87924 19.6136 4.73273 19.7601C4.58622 19.9066 4.50391 20.1053 4.50391 20.3125V22.6562C4.50391 22.8635 4.58622 23.0622 4.73273 23.2087C4.87924 23.3552 5.07796 23.4375 5.28516 23.4375H15.5059C18.9629 23.4375 22.0557 20.9106 22.3906 17.4609C22.6221 15.0952 21.5903 12.9658 19.9087 11.6211ZM10.7373 5.46875H15.0225C15.6441 5.46875 16.2402 5.71568 16.6797 6.15522C17.1193 6.59476 17.3662 7.1909 17.3662 7.8125C17.3662 8.4341 17.1193 9.03024 16.6797 9.46978C16.2402 9.90932 15.6441 10.1562 15.0225 10.1562H10.7373V5.46875ZM15.0225 19.5312H10.7373V14.0625H15.0225C15.7477 14.0625 16.4432 14.3506 16.956 14.8634C17.4688 15.3762 17.7568 16.0717 17.7568 16.7969C17.7568 17.5221 17.4688 18.2176 16.956 18.7304C16.4432 19.2432 15.7477 19.5312 15.0225 19.5312Z"
		fill="black" />
</svg>