<svg width="20" height="19" viewBox="0 0 26 25" fill="none" xmlns="http://www.w3.org/2000/svg">
	<g clip-path="url(#clip0_749_1358)">
		<path
			d="M11.3945 22.4805L9.01172 21.7891C8.76172 21.7188 8.62109 21.457 8.69141 21.207L14.0234 2.83986C14.0938 2.58986 14.3555 2.44923 14.6055 2.51954L16.9883 3.21095C17.2383 3.28126 17.3789 3.54298 17.3086 3.79298L11.9766 22.1602C11.9023 22.4102 11.6445 22.5547 11.3945 22.4805ZM6.94141 18.0977L8.64062 16.2852C8.82031 16.0938 8.80859 15.7891 8.60938 15.6133L5.07031 12.5L8.60938 9.38673C8.80859 9.21095 8.82422 8.90626 8.64062 8.71486L6.94141 6.90236C6.76562 6.71486 6.46875 6.70314 6.27734 6.88282L0.648438 12.1563C0.449219 12.3399 0.449219 12.6563 0.648438 12.8399L6.27734 18.1172C6.46875 18.2969 6.76562 18.2891 6.94141 18.0977ZM19.7227 18.1211L25.3516 12.8438C25.5508 12.6602 25.5508 12.3438 25.3516 12.1602L19.7227 6.87892C19.5352 6.70314 19.2383 6.71095 19.0586 6.89845L17.3594 8.71095C17.1797 8.90236 17.1914 9.20704 17.3906 9.38283L20.9297 12.5L17.3906 15.6133C17.1914 15.7891 17.1758 16.0938 17.3594 16.2852L19.0586 18.0977C19.2344 18.2891 19.5312 18.2969 19.7227 18.1211Z"
			fill="black" />
	</g>
	<defs>
		<clipPath id="clip0_749_1358">
			<rect width="25" height="25" fill="white" transform="translate(0.5)" />
		</clipPath>
	</defs>
</svg>