<svg width="21" height="22" viewBox="0 0 21 22" fill="none" xmlns="http://www.w3.org/2000/svg">
<g clip-path="url(#clip0_165_1294)">
<path d="M9.55116 4.27636H3.28915C2.81464 4.27636 2.35956 4.46485 2.02403 4.80038C1.6885 5.13591 1.5 5.59099 1.5 6.0655V18.5895C1.5 19.064 1.6885 19.5191 2.02403 19.8547C2.35956 20.1902 2.81464 20.3787 3.28915 20.3787H15.8132C16.2877 20.3787 16.7428 20.1902 17.0783 19.8547C17.4138 19.5191 17.6023 19.064 17.6023 18.5895V12.3275" stroke="#9CACB0" stroke-width="2" stroke-linecap="round" stroke-linejoin="round"/>
<path d="M16.2605 2.9345C16.6163 2.57861 17.099 2.37868 17.6023 2.37868C18.1056 2.37868 18.5883 2.57861 18.9442 2.9345C19.3001 3.29038 19.5 3.77306 19.5 4.27636C19.5 4.77965 19.3001 5.26233 18.9442 5.61822L10.4457 14.1167L6.86743 15.0112L7.76201 11.4329L16.2605 2.9345Z" stroke="#9CACB0" stroke-width="2" stroke-linecap="round" stroke-linejoin="round"/>
</g>
<defs>
<clipPath id="clip0_165_1294">
<rect width="20" height="21" fill="white" transform="translate(0.5 0.5)"/>
</clipPath>
</defs>
</svg>
