<svg width="20" height="19" viewBox="0 0 26 25" fill="none" xmlns="http://www.w3.org/2000/svg">
	<path
		d="M22.375 4.6875V20.3125H23.9375C24.1447 20.3125 24.3434 20.3948 24.4899 20.5413C24.6364 20.6878 24.7188 20.8865 24.7188 21.0938V22.6562C24.7188 22.8635 24.6364 23.0622 24.4899 23.2087C24.3434 23.3552 24.1447 23.4375 23.9375 23.4375H16.125C15.9178 23.4375 15.7191 23.3552 15.5726 23.2087C15.4261 23.0622 15.3438 22.8635 15.3438 22.6562V21.0938C15.3438 20.8865 15.4261 20.6878 15.5726 20.5413C15.7191 20.3948 15.9178 20.3125 16.125 20.3125H17.6875V14.0625H8.3125V20.3125H9.875C10.0822 20.3125 10.2809 20.3948 10.4274 20.5413C10.5739 20.6878 10.6562 20.8865 10.6562 21.0938V22.6562C10.6562 22.8635 10.5739 23.0622 10.4274 23.2087C10.2809 23.3552 10.0822 23.4375 9.875 23.4375H2.0625C1.8553 23.4375 1.65659 23.3552 1.51007 23.2087C1.36356 23.0622 1.28125 22.8635 1.28125 22.6562V21.0938C1.28125 20.8865 1.36356 20.6878 1.51007 20.5413C1.65659 20.3948 1.8553 20.3125 2.0625 20.3125H3.625V4.6875H2.0625C1.8553 4.6875 1.65659 4.60519 1.51007 4.45868C1.36356 4.31216 1.28125 4.11345 1.28125 3.90625V2.34375C1.28125 2.13655 1.36356 1.93784 1.51007 1.79132C1.65659 1.64481 1.8553 1.5625 2.0625 1.5625H9.875C10.0822 1.5625 10.2809 1.64481 10.4274 1.79132C10.5739 1.93784 10.6562 2.13655 10.6562 2.34375V3.90625C10.6562 4.11345 10.5739 4.31216 10.4274 4.45868C10.2809 4.60519 10.0822 4.6875 9.875 4.6875H8.3125V10.9375H17.6875V4.6875H16.125C15.9178 4.6875 15.7191 4.60519 15.5726 4.45868C15.4261 4.31216 15.3438 4.11345 15.3438 3.90625V2.34375C15.3438 2.13655 15.4261 1.93784 15.5726 1.79132C15.7191 1.64481 15.9178 1.5625 16.125 1.5625H23.9375C24.1447 1.5625 24.3434 1.64481 24.4899 1.79132C24.6364 1.93784 24.7188 2.13655 24.7188 2.34375V3.90625C24.7188 4.11345 24.6364 4.31216 24.4899 4.45868C24.3434 4.60519 24.1447 4.6875 23.9375 4.6875H22.375Z"
		fill="black" />
</svg>