<svg width="192" height="192" viewBox="0 0 192 192" fill="none" xmlns="http://www.w3.org/2000/svg">
	<g opacity="0.5">
		<path
			d="M95.9999 16C71.9999 16 47.9999 32 47.9999 64V66.8125C38.5816 71.3314 31.9999 80.8914 31.9999 92C31.9999 99.8321 35.2678 106.909 40.4843 112H39.9999C38.9398 111.985 37.8873 112.181 36.9036 112.576C35.9198 112.971 35.0245 113.558 34.2695 114.303C33.5146 115.047 32.9151 115.934 32.5059 116.912C32.0967 117.89 31.886 118.94 31.886 120C31.886 121.06 32.0967 122.11 32.5059 123.088C32.9151 124.066 33.5146 124.953 34.2695 125.697C35.0245 126.442 35.9198 127.029 36.9036 127.424C37.8873 127.819 38.9398 128.015 39.9999 128H48.4843C43.2678 133.091 39.9999 140.168 39.9999 148V156C40 157.061 40.4215 158.078 41.1716 158.828C41.9217 159.578 42.9391 160 43.9999 160H48.8124C50.839 173.451 62.0004 184 75.9999 184H87.9999H144V136C148.4 136 152.401 134.241 155.281 131.281C158.241 128.401 160 124.4 160 120C160 115.6 158.241 111.599 155.281 108.719C152.401 105.759 148.4 104 144 104V64C144 32 120 16 95.9999 16ZM59.9999 72C61.5267 72 63.0078 72.2037 64.4374 72.5312C64.7681 72.606 65.0822 72.7216 65.4062 72.8125C66.4961 73.1221 67.5416 73.5184 68.5468 74C68.8726 74.155 69.1997 74.2968 69.5155 74.4688C69.5945 74.512 69.656 74.5807 69.7343 74.625C65.9494 79.681 63.9999 85.8282 63.9999 92C63.9999 98.183 65.951 104.345 69.7499 109.406C66.8633 111.028 63.5681 112 59.9999 112C48.9053 112 39.9999 103.095 39.9999 92C39.9999 91.2663 40.1427 90.572 40.2187 89.8594C40.6367 91.6086 41.6319 93.1659 43.0437 94.28C44.4555 95.3942 46.2015 96.0001 47.9999 96C50.1217 96 52.1565 95.1571 53.6568 93.6569C55.1571 92.1566 55.9999 90.1217 55.9999 88C55.9999 85.8783 55.1571 83.8434 53.6568 82.3431C52.1565 80.8429 50.1217 80 47.9999 80C46.0919 79.9996 44.2465 80.6813 42.7968 81.9219C44.2107 79.5025 46.0773 77.4085 48.3437 75.7812C48.7812 75.4649 49.2506 75.1878 49.7187 74.9062C50.2619 74.5803 50.8149 74.2742 51.3906 74C51.8808 73.7662 52.3776 73.5388 52.8906 73.3438C53.5532 73.093 54.2426 72.8992 54.9374 72.7188C55.4092 72.5947 55.8754 72.4495 56.3593 72.3594C57.5418 72.1438 58.7525 72 59.9999 72ZM91.9999 72C103.04 72 112 80.96 112 92C112 103.04 103.04 112 91.9999 112C85.4399 112 79.6799 108.88 75.9999 104C75.9441 104.074 75.8693 104.13 75.8124 104.203C73.359 100.725 71.9999 96.4138 71.9999 92C71.9999 87.6057 73.3489 83.3144 75.7812 79.8438C75.8462 79.929 75.9363 79.9918 75.9999 80.0781C79.5999 75.1981 85.4399 72 91.9999 72ZM87.9999 80C85.8782 80 83.8434 80.8429 82.3431 82.3431C80.8428 83.8434 79.9999 85.8783 79.9999 88C79.9999 90.1217 80.8428 92.1566 82.3431 93.6569C83.8434 95.1571 85.8782 96 87.9999 96C90.1217 96 92.1565 95.1571 93.6568 93.6569C95.1571 92.1566 95.9999 90.1217 95.9999 88C95.9999 85.8783 95.1571 83.8434 93.6568 82.3431C92.1565 80.8429 90.1217 80 87.9999 80ZM67.9999 128H71.9999H87.9999C99.0946 128 108 136.905 108 148V156C108 167.095 99.0946 176 87.9999 176H75.9999C66.4734 176 59.7026 168.88 57.6562 160H87.9999C88.53 160.007 89.0562 159.91 89.5481 159.712C90.04 159.514 90.4877 159.221 90.8651 158.849C91.2426 158.476 91.5424 158.033 91.7469 157.544C91.9515 157.055 92.0569 156.53 92.0569 156C92.0569 155.47 91.9515 154.945 91.7469 154.456C91.5424 153.967 91.2426 153.524 90.8651 153.151C90.4877 152.779 90.04 152.486 89.5481 152.288C89.0562 152.09 88.53 151.993 87.9999 152H52.6406C52.2111 151.929 51.7731 151.929 51.3437 152H47.9999V148C47.9999 136.905 56.9053 128 67.9999 128Z"
			fill="#E7DC6A" />
	</g>
</svg>