<svg width="20" height="19" viewBox="0 0 26 25" fill="none" xmlns="http://www.w3.org/2000/svg">
	<path
		d="M20.8125 2.34375V3.90625C20.8125 4.11345 20.7302 4.31216 20.5837 4.45868C20.4372 4.60519 20.2385 4.6875 20.0312 4.6875H16.9668L13.0605 20.3125H15.3438C15.551 20.3125 15.7497 20.3948 15.8962 20.5413C16.0427 20.6878 16.125 20.8865 16.125 21.0938V22.6562C16.125 22.8635 16.0427 23.0622 15.8962 23.2087C15.7497 23.3552 15.551 23.4375 15.3438 23.4375H5.96875C5.76155 23.4375 5.56284 23.3552 5.41632 23.2087C5.26981 23.0622 5.1875 22.8635 5.1875 22.6562V21.0938C5.1875 20.8865 5.26981 20.6878 5.41632 20.5413C5.56284 20.3948 5.76155 20.3125 5.96875 20.3125H9.0332L12.9395 4.6875H10.6562C10.449 4.6875 10.2503 4.60519 10.1038 4.45868C9.95731 4.31216 9.875 4.11345 9.875 3.90625V2.34375C9.875 2.13655 9.95731 1.93784 10.1038 1.79132C10.2503 1.64481 10.449 1.5625 10.6562 1.5625H20.0312C20.2385 1.5625 20.4372 1.64481 20.5837 1.79132C20.7302 1.93784 20.8125 2.13655 20.8125 2.34375Z"
		fill="black" />
</svg>