<svg width="26" height="25" viewBox="0 0 26 25" fill="none" xmlns="http://www.w3.org/2000/svg">
<g clip-path="url(#clip0_751_1381)">
<path d="M16.4479 9.05229C19.3652 11.9727 19.3252 16.6547 16.4655 19.5303C16.4601 19.5362 16.4537 19.5425 16.4479 19.5484L13.1666 22.8296C10.2726 25.7237 5.56414 25.7233 2.67053 22.8296C-0.223511 19.9361 -0.223511 15.2271 2.67053 12.3335L4.48235 10.5217C4.96282 10.0413 5.79026 10.3606 5.81506 11.0396C5.8467 11.9049 6.00188 12.7743 6.28821 13.6139C6.38518 13.8981 6.31589 14.2126 6.10349 14.425L5.46448 15.064C4.09602 16.4325 4.0531 18.6607 5.40808 20.0425C6.77644 21.438 9.02556 21.4463 10.4044 20.0674L13.6857 16.7867C15.0622 15.4101 15.0564 13.1852 13.6857 11.8145C13.505 11.6341 13.3229 11.494 13.1807 11.3961C13.0801 11.327 12.9971 11.2354 12.9382 11.1285C12.8793 11.0216 12.8462 10.9025 12.8415 10.7806C12.8222 10.2646 13.005 9.7329 13.4127 9.32519L14.4407 8.29711C14.7103 8.02753 15.1332 7.99443 15.4458 8.21259C15.8038 8.46257 16.1391 8.74355 16.4479 9.05229ZM23.3295 2.17036C20.4359 -0.723297 15.7274 -0.723688 12.8334 2.17036L9.55213 5.45161C9.54627 5.45746 9.53992 5.46381 9.53455 5.46967C6.67488 8.34526 6.63479 13.0273 9.55213 15.9477C9.86086 16.2564 10.1962 16.5374 10.5541 16.7873C10.8667 17.0055 11.2897 16.9724 11.5592 16.7028L12.5872 15.6747C12.9949 15.267 13.1778 14.7353 13.1584 14.2194C13.1538 14.0974 13.1206 13.9783 13.0618 13.8714C13.0029 13.7646 12.9198 13.6729 12.8192 13.6039C12.677 13.5059 12.495 13.3658 12.3143 13.1854C10.9435 11.8147 10.9378 9.58979 12.3143 8.21327L15.5955 4.93251C16.9744 3.55366 19.2235 3.56196 20.5919 4.95742C21.9469 6.33925 21.904 8.56748 20.5355 9.93593L19.8965 10.5749C19.6841 10.7873 19.6148 11.1018 19.7117 11.3861C19.9981 12.2256 20.1532 13.095 20.1849 13.9603C20.2097 14.6393 21.0371 14.9587 21.5176 14.4782L23.3294 12.6664C26.2235 9.77289 26.2235 5.06391 23.3295 2.17036Z" fill="black"/>
</g>
<defs>
<clipPath id="clip0_751_1381">
<rect width="25" height="25" fill="white" transform="translate(0.5)"/>
</clipPath>
</defs>
</svg>
