<svg width="20" height="19" viewBox="0 0 26 25" fill="none" xmlns="http://www.w3.org/2000/svg">
	<g clip-path="url(#clip0_751_1396)">
		<path
			d="M2.84375 2.34375C2.3802 2.34375 1.92706 2.48121 1.54163 2.73874C1.15621 2.99628 0.855801 3.36232 0.678408 3.79059C0.501016 4.21885 0.454601 4.6901 0.545036 5.14474C0.63547 5.59939 0.85869 6.017 1.18647 6.34478C1.51425 6.67256 1.93187 6.89578 2.38651 6.98622C2.84115 7.07665 3.3124 7.03024 3.74067 6.85284C4.16893 6.67545 4.53497 6.37505 4.79251 5.98962C5.05004 5.60419 5.1875 5.15105 5.1875 4.6875C5.1875 4.0659 4.94057 3.46976 4.50103 3.03022C4.06149 2.59068 3.46535 2.34375 2.84375 2.34375ZM2.84375 10.1562C2.3802 10.1562 1.92706 10.2937 1.54163 10.5512C1.15621 10.8088 0.855801 11.1748 0.678408 11.6031C0.501016 12.0314 0.454601 12.5026 0.545036 12.9572C0.63547 13.4119 0.85869 13.8295 1.18647 14.1573C1.51425 14.4851 1.93187 14.7083 2.38651 14.7987C2.84115 14.8891 3.3124 14.8427 3.74067 14.6653C4.16893 14.4879 4.53497 14.1875 4.79251 13.8021C5.05004 13.4167 5.1875 12.9635 5.1875 12.5C5.1875 11.8784 4.94057 11.2823 4.50103 10.8427C4.06149 10.4032 3.46535 10.1562 2.84375 10.1562ZM2.84375 17.9688C2.3802 17.9688 1.92706 18.1062 1.54163 18.3637C1.15621 18.6213 0.855801 18.9873 0.678408 19.4156C0.501016 19.8439 0.454601 20.3151 0.545036 20.7697C0.63547 21.2244 0.85869 21.642 1.18647 21.9698C1.51425 22.2976 1.93187 22.5208 2.38651 22.6112C2.84115 22.7016 3.3124 22.6552 3.74067 22.4778C4.16893 22.3004 4.53497 22 4.79251 21.6146C5.05004 21.2292 5.1875 20.776 5.1875 20.3125C5.1875 19.6909 4.94057 19.0948 4.50103 18.6552C4.06149 18.2157 3.46535 17.9688 2.84375 17.9688ZM24.7188 18.75H9.09375C8.88655 18.75 8.68784 18.8323 8.54132 18.9788C8.39481 19.1253 8.3125 19.324 8.3125 19.5312V21.0938C8.3125 21.301 8.39481 21.4997 8.54132 21.6462C8.68784 21.7927 8.88655 21.875 9.09375 21.875H24.7188C24.926 21.875 25.1247 21.7927 25.2712 21.6462C25.4177 21.4997 25.5 21.301 25.5 21.0938V19.5312C25.5 19.324 25.4177 19.1253 25.2712 18.9788C25.1247 18.8323 24.926 18.75 24.7188 18.75ZM24.7188 3.125H9.09375C8.88655 3.125 8.68784 3.20731 8.54132 3.35382C8.39481 3.50034 8.3125 3.69905 8.3125 3.90625V5.46875C8.3125 5.67595 8.39481 5.87466 8.54132 6.02118C8.68784 6.16769 8.88655 6.25 9.09375 6.25H24.7188C24.926 6.25 25.1247 6.16769 25.2712 6.02118C25.4177 5.87466 25.5 5.67595 25.5 5.46875V3.90625C25.5 3.69905 25.4177 3.50034 25.2712 3.35382C25.1247 3.20731 24.926 3.125 24.7188 3.125ZM24.7188 10.9375H9.09375C8.88655 10.9375 8.68784 11.0198 8.54132 11.1663C8.39481 11.3128 8.3125 11.5115 8.3125 11.7188V13.2812C8.3125 13.4885 8.39481 13.6872 8.54132 13.8337C8.68784 13.9802 8.88655 14.0625 9.09375 14.0625H24.7188C24.926 14.0625 25.1247 13.9802 25.2712 13.8337C25.4177 13.6872 25.5 13.4885 25.5 13.2812V11.7188C25.5 11.5115 25.4177 11.3128 25.2712 11.1663C25.1247 11.0198 24.926 10.9375 24.7188 10.9375Z"
			fill="black" />
	</g>
	<defs>
		<clipPath id="clip0_751_1396">
			<rect width="25" height="25" fill="white" transform="translate(0.5)" />
		</clipPath>
	</defs>
</svg>