<svg width="20" height="19" viewBox="0 0 26 25" fill="none" xmlns="http://www.w3.org/2000/svg">
	<g clip-path="url(#clip0_751_1385)">
		<path
			d="M3.51611 19.5801L4.37061 18.5962C4.54067 18.4066 4.62955 18.1578 4.61816 17.9033V17.7417C4.61816 17.3828 4.43066 17.1875 4.06445 17.1875H1.28125C1.17765 17.1875 1.07829 17.2287 1.00504 17.3019C0.93178 17.3752 0.890625 17.4745 0.890625 17.5781V18.3594C0.890625 18.463 0.93178 18.5623 1.00504 18.6356C1.07829 18.7088 1.17765 18.75 1.28125 18.75H2.396C2.20657 18.9408 2.02729 19.1415 1.85889 19.3511L1.58496 19.6929C1.38965 19.9404 1.32861 20.1875 1.44824 20.4194L1.49951 20.5137C1.646 20.7949 1.80664 20.8984 2.09766 20.8984H2.32861C2.83301 20.8984 3.10693 21.0176 3.10693 21.3423C3.10693 21.5728 2.90186 21.7437 2.40576 21.7437C2.14655 21.7416 1.89013 21.6899 1.65039 21.5913C1.3335 21.4019 1.07715 21.4204 0.888672 21.7437L0.615723 22.1982C0.434082 22.4976 0.459961 22.7705 0.744141 22.9766C1.12061 23.2056 1.73926 23.4375 2.55078 23.4375C4.21875 23.4375 4.91895 22.3267 4.91895 21.2832C4.91748 20.5811 4.47363 19.8301 3.51611 19.5801ZM24.7188 10.9375H9.09375C8.88655 10.9375 8.68784 11.0198 8.54132 11.1663C8.39481 11.3128 8.3125 11.5115 8.3125 11.7188V13.2812C8.3125 13.4885 8.39481 13.6872 8.54132 13.8337C8.68784 13.9802 8.88655 14.0625 9.09375 14.0625H24.7188C24.926 14.0625 25.1247 13.9802 25.2712 13.8337C25.4177 13.6872 25.5 13.4885 25.5 13.2812V11.7188C25.5 11.5115 25.4177 11.3128 25.2712 11.1663C25.1247 11.0198 24.926 10.9375 24.7188 10.9375ZM24.7188 3.125H9.09375C8.88655 3.125 8.68784 3.20731 8.54132 3.35382C8.39481 3.50034 8.3125 3.69905 8.3125 3.90625V5.46875C8.3125 5.67595 8.39481 5.87466 8.54132 6.02118C8.68784 6.16769 8.88655 6.25 9.09375 6.25H24.7188C24.926 6.25 25.1247 6.16769 25.2712 6.02118C25.4177 5.87466 25.5 5.67595 25.5 5.46875V3.90625C25.5 3.69905 25.4177 3.50034 25.2712 3.35382C25.1247 3.20731 24.926 3.125 24.7188 3.125ZM24.7188 18.75H9.09375C8.88655 18.75 8.68784 18.8323 8.54132 18.9788C8.39481 19.1253 8.3125 19.324 8.3125 19.5312V21.0938C8.3125 21.301 8.39481 21.4997 8.54132 21.6462C8.68784 21.7927 8.88655 21.875 9.09375 21.875H24.7188C24.926 21.875 25.1247 21.7927 25.2712 21.6462C25.4177 21.4997 25.5 21.301 25.5 21.0938V19.5312C25.5 19.324 25.4177 19.1253 25.2712 18.9788C25.1247 18.8323 24.926 18.75 24.7188 18.75ZM1.28125 7.8125H4.40625C4.50985 7.8125 4.60921 7.77135 4.68246 7.69809C4.75572 7.62483 4.79688 7.52548 4.79688 7.42188V6.64062C4.79688 6.53702 4.75572 6.43767 4.68246 6.36441C4.60921 6.29115 4.50985 6.25 4.40625 6.25H3.625V1.95312C3.625 1.84952 3.58384 1.75017 3.51059 1.67691C3.43733 1.60366 3.33798 1.5625 3.23438 1.5625H2.0625C1.9901 1.56263 1.91915 1.58288 1.85759 1.62099C1.79603 1.6591 1.74627 1.71357 1.71387 1.77832L1.32324 2.55957C1.29347 2.61907 1.27938 2.68519 1.28233 2.75167C1.28527 2.81814 1.30515 2.88275 1.34007 2.93939C1.37499 2.99603 1.4238 3.0428 1.48187 3.07529C1.53994 3.10777 1.60534 3.12488 1.67188 3.125H2.0625V6.25H1.28125C1.17765 6.25 1.07829 6.29115 1.00504 6.36441C0.93178 6.43767 0.890625 6.53702 0.890625 6.64062V7.42188C0.890625 7.52548 0.93178 7.62483 1.00504 7.69809C1.07829 7.77135 1.17765 7.8125 1.28125 7.8125ZM1.09033 15.625H4.40625C4.50985 15.625 4.60921 15.5838 4.68246 15.5106C4.75572 15.4373 4.79688 15.338 4.79688 15.2344V14.4531C4.79688 14.3495 4.75572 14.2502 4.68246 14.1769C4.60921 14.1037 4.50985 14.0625 4.40625 14.0625H2.51758C2.67822 13.5601 4.87793 13.1504 4.87793 11.3066C4.87793 9.8877 3.65723 9.375 2.70654 9.375C1.66357 9.375 1.05615 9.86328 0.730957 10.2905C0.517578 10.5635 0.584473 10.8198 0.867676 11.041L1.28662 11.377C1.56055 11.5996 1.82373 11.4976 2.07373 11.2578C2.19704 11.137 2.363 11.0696 2.53564 11.0703C2.69824 11.0703 2.98877 11.1465 2.98877 11.4976C2.99023 12.1187 0.5 12.564 0.5 14.8726V15.0679C0.5 15.4297 0.748047 15.625 1.09033 15.625Z"
			fill="black" />
	</g>
	<defs>
		<clipPath id="clip0_751_1385">
			<rect width="25" height="25" fill="white" transform="translate(0.5)" />
		</clipPath>
	</defs>
</svg>