<svg width="120" height="56" viewBox="0 0 167 85" fill="none" xmlns="http://www.w3.org/2000/svg">
	<path
		d="M10 15.3333C10 13.4924 11.4924 12 13.3333 12H20V22H16.6667C12.9848 22 10 19.0152 10 15.3333Z"
		fill="#9CACB0" />
	<rect x="30" y="12" width="10" height="10" fill="#9CACB0" />
	<rect x="20" y="12" width="10" height="10" fill="#9CACB0" />
	<path
		d="M25 3.33333C25 1.49238 26.4924 0 28.3333 0C32.0152 0 35 2.98477 35 6.66667V10H25V3.33333Z"
		fill="#6579FC" />
	<path d="M40 12C45.5228 12 50 16.4772 50 22H40V12Z" fill="#9CACB0" />
	<rect x="40" y="22" width="5" height="5" fill="#9CACB0" />
	<rect x="27" y="33" width="5" height="10" fill="#9CACB0" />
	<path d="M45 22H50C50 24.7614 47.7614 27 45 27V22Z" fill="#9CACB0" />
	<path
		d="M27 38.0194L6.4373e-06 38C0.0019893 35.2386 2.24217 33.0016 5.0036 33.0036L27.0036 33.0194L27 38.0194Z"
		fill="#9CACB0" />
	<path d="M0 38H27V43H5C2.23858 43 0 40.7614 0 38Z" fill="#9CACB0" />
	<path d="M28 58H10C10 55.2386 12.2386 53 15 53H28V58Z" fill="#9CACB0" />
	<path d="M14 62C11.7909 62 10 60.2091 10 58H16V62H14Z" fill="#9CACB0" />
	<path d="M32 36H40V43H32V36Z" fill="#9CACB0" />
	<path d="M50 36H55.3333C57.9107 36 60 38.0893 60 40.6667C60 41.9553 58.9553 43 57.6667 43H50V36Z"
		fill="#9CACB0" />
	<path d="M25 64H35V74H25V64Z" fill="#6579FC" />
	<path d="M16 58H28V62H16V58Z" fill="#9CACB0" />
	<rect x="40" y="36" width="10" height="7" fill="#9CACB0" />
	<rect x="28" y="56" width="10" height="6" fill="#9CACB0" />
	<path
		d="M41 54.6667C41 52.0893 43.0893 50 45.6667 50C46.9553 50 48 51.0447 48 52.3333V56H41V54.6667Z"
		fill="#9CACB0" />
	<path d="M38 56H48C48 59.3137 45.3137 62 42 62H38V56Z" fill="#9CACB0" />
	<path d="M25 75H35V78.3333C35 82.0152 32.0152 85 28.3333 85C26.4924 85 25 83.5076 25 81.6667V75Z"
		fill="#6579FC" />
	<circle cx="36" cy="30" r="5" fill="#E8DE53" />
	<circle cx="30" cy="48" r="5" fill="#3B5F82" />
	<g filter="url(#filter0_d_91_635)">
		<path
			d="M83.0078 44.4189C83.0078 44.0381 82.9492 43.6963 82.832 43.3936C82.7246 43.0811 82.5195 42.7979 82.2168 42.5439C81.9141 42.2803 81.4893 42.0215 80.9424 41.7676C80.3955 41.5137 79.6875 41.25 78.8184 40.9766C77.8516 40.6641 76.9336 40.3125 76.0645 39.9219C75.2051 39.5313 74.4434 39.0771 73.7793 38.5596C73.125 38.0322 72.6074 37.4219 72.2266 36.7285C71.8555 36.0352 71.6699 35.2295 71.6699 34.3115C71.6699 33.4229 71.8652 32.6172 72.2559 31.8945C72.6465 31.1621 73.1934 30.5371 73.8965 30.0195C74.5996 29.4922 75.4297 29.0869 76.3867 28.8037C77.3535 28.5205 78.4131 28.3789 79.5654 28.3789C81.1377 28.3789 82.5098 28.6621 83.6816 29.2285C84.8535 29.7949 85.7617 30.5713 86.4062 31.5576C87.0605 32.5439 87.3877 33.6719 87.3877 34.9414H83.0225C83.0225 34.3164 82.8906 33.7695 82.627 33.3008C82.373 32.8223 81.9824 32.4463 81.4551 32.1729C80.9375 31.8994 80.2832 31.7627 79.4922 31.7627C78.7305 31.7627 78.0957 31.8799 77.5879 32.1143C77.0801 32.3389 76.6992 32.6465 76.4453 33.0371C76.1914 33.418 76.0645 33.8477 76.0645 34.3262C76.0645 34.6875 76.1523 35.0146 76.3281 35.3076C76.5137 35.6006 76.7871 35.874 77.1484 36.1279C77.5098 36.3818 77.9541 36.6211 78.4814 36.8457C79.0088 37.0703 79.6191 37.29 80.3125 37.5049C81.4746 37.8564 82.4951 38.252 83.374 38.6914C84.2627 39.1309 85.0049 39.624 85.6006 40.1709C86.1963 40.7178 86.6455 41.3379 86.9482 42.0313C87.251 42.7246 87.4023 43.5107 87.4023 44.3896C87.4023 45.3174 87.2217 46.1475 86.8604 46.8799C86.499 47.6123 85.9766 48.2324 85.293 48.7402C84.6094 49.248 83.7939 49.6338 82.8467 49.8975C81.8994 50.1611 80.8398 50.293 79.668 50.293C78.6133 50.293 77.5732 50.1562 76.5479 49.8828C75.5225 49.5996 74.5898 49.1748 73.75 48.6084C72.9199 48.042 72.2559 47.3193 71.7578 46.4404C71.2598 45.5615 71.0107 44.5215 71.0107 43.3203H75.4199C75.4199 43.9844 75.5225 44.5459 75.7275 45.0049C75.9326 45.4639 76.2207 45.835 76.5918 46.1182C76.9727 46.4014 77.4219 46.6064 77.9395 46.7334C78.4668 46.8604 79.043 46.9238 79.668 46.9238C80.4297 46.9238 81.0547 46.8164 81.543 46.6016C82.041 46.3867 82.4072 46.0889 82.6416 45.708C82.8857 45.3271 83.0078 44.8975 83.0078 44.4189ZM89.4531 42.2363V41.9287C89.4531 40.7666 89.6191 39.6973 89.9512 38.7207C90.2832 37.7344 90.7666 36.8799 91.4014 36.1572C92.0361 35.4346 92.8174 34.873 93.7451 34.4727C94.6728 34.0625 95.7373 33.8574 96.9385 33.8574C98.1396 33.8574 99.209 34.0625 100.146 34.4727C101.084 34.873 101.87 35.4346 102.505 36.1572C103.149 36.8799 103.638 37.7344 103.97 38.7207C104.302 39.6973 104.468 40.7666 104.468 41.9287V42.2363C104.468 43.3887 104.302 44.458 103.97 45.4443C103.638 46.4209 103.149 47.2754 102.505 48.0078C101.87 48.7305 101.089 49.292 100.161 49.6924C99.2334 50.0928 98.1689 50.293 96.9678 50.293C95.7666 50.293 94.6973 50.0928 93.7598 49.6924C92.832 49.292 92.0459 48.7305 91.4014 48.0078C90.7666 47.2754 90.2832 46.4209 89.9512 45.4443C89.6191 44.458 89.4531 43.3887 89.4531 42.2363ZM93.6719 41.9287V42.2363C93.6719 42.9004 93.7305 43.5205 93.8477 44.0967C93.9648 44.6729 94.1504 45.1807 94.4043 45.6201C94.668 46.0498 95.0098 46.3867 95.4297 46.6309C95.8496 46.875 96.3623 46.9971 96.9678 46.9971C97.5537 46.9971 98.0566 46.875 98.4766 46.6309C98.8965 46.3867 99.2334 46.0498 99.4873 45.6201C99.7412 45.1807 99.9268 44.6729 100.044 44.0967C100.171 43.5205 100.234 42.9004 100.234 42.2363V41.9287C100.234 41.2842 100.171 40.6787 100.044 40.1123C99.9268 39.5361 99.7363 39.0283 99.4727 38.5889C99.2187 38.1396 98.8818 37.7881 98.4619 37.5342C98.042 37.2803 97.5342 37.1533 96.9385 37.1533C96.3428 37.1533 95.835 37.2803 95.415 37.5342C95.0049 37.7881 94.668 38.1396 94.4043 38.5889C94.1504 39.0283 93.9648 39.5361 93.8477 40.1123C93.7305 40.6787 93.6719 41.2842 93.6719 41.9287ZM115.381 39.1895V42.5H107.104V39.1895H115.381ZM118.896 27.5H123.115V46.3672L122.69 50H118.896V27.5ZM133.149 41.9141V42.2217C133.149 43.4033 133.022 44.4873 132.769 45.4736C132.524 46.46 132.144 47.3145 131.626 48.0371C131.108 48.75 130.464 49.3066 129.692 49.707C128.931 50.0977 128.032 50.293 126.997 50.293C126.03 50.293 125.19 50.0977 124.478 49.707C123.774 49.3164 123.184 48.7646 122.705 48.0518C122.227 47.3389 121.841 46.5039 121.548 45.5469C121.255 44.5898 121.035 43.5449 120.889 42.4121V41.7383C121.035 40.6055 121.255 39.5605 121.548 38.6035C121.841 37.6465 122.227 36.8115 122.705 36.0986C123.184 35.3857 123.774 34.834 124.478 34.4434C125.181 34.0527 126.011 33.8574 126.968 33.8574C128.013 33.8574 128.921 34.0576 129.692 34.458C130.474 34.8486 131.118 35.4053 131.626 36.1279C132.144 36.8408 132.524 37.6904 132.769 38.6768C133.022 39.6533 133.149 40.7324 133.149 41.9141ZM128.931 42.2217V41.9141C128.931 41.2695 128.882 40.6641 128.784 40.0977C128.696 39.5215 128.54 39.0186 128.315 38.5889C128.091 38.1494 127.783 37.8027 127.393 37.5488C127.012 37.2949 126.519 37.168 125.913 37.168C125.337 37.168 124.849 37.2656 124.448 37.4609C124.048 37.6563 123.716 37.9297 123.452 38.2813C123.198 38.6328 123.008 39.0527 122.881 39.541C122.754 40.0195 122.676 40.5469 122.646 41.123V43.042C122.676 43.8135 122.803 44.4971 123.027 45.0928C123.262 45.6787 123.613 46.1426 124.082 46.4844C124.561 46.8164 125.181 46.9824 125.942 46.9824C126.538 46.9824 127.031 46.8652 127.422 46.6309C127.812 46.3965 128.115 46.0645 128.33 45.6348C128.555 45.2051 128.711 44.7021 128.799 44.126C128.887 43.54 128.931 42.9053 128.931 42.2217ZM144.326 46.4258V39.3652C144.326 38.8574 144.243 38.4229 144.077 38.0615C143.911 37.6904 143.652 37.4023 143.301 37.1973C142.959 36.9922 142.515 36.8896 141.968 36.8896C141.499 36.8896 141.094 36.9727 140.752 37.1387C140.41 37.2949 140.146 37.5244 139.961 37.8271C139.775 38.1201 139.683 38.4668 139.683 38.8672H135.464C135.464 38.1934 135.62 37.5537 135.933 36.9482C136.245 36.3428 136.699 35.8105 137.295 35.3516C137.891 34.8828 138.599 34.5166 139.419 34.2529C140.249 33.9893 141.177 33.8574 142.202 33.8574C143.433 33.8574 144.526 34.0625 145.483 34.4727C146.44 34.8828 147.192 35.498 147.739 36.3184C148.296 37.1387 148.574 38.1641 148.574 39.3945V46.1768C148.574 47.0459 148.628 47.7588 148.735 48.3154C148.843 48.8623 148.999 49.3408 149.204 49.751V50H144.941C144.736 49.5703 144.58 49.0332 144.473 48.3887C144.375 47.7344 144.326 47.0801 144.326 46.4258ZM144.883 40.3467L144.912 42.7344H142.554C141.997 42.7344 141.514 42.7979 141.104 42.9248C140.693 43.0518 140.356 43.2324 140.093 43.4668C139.829 43.6914 139.634 43.9551 139.507 44.2578C139.39 44.5605 139.331 44.8926 139.331 45.2539C139.331 45.6152 139.414 45.9424 139.58 46.2354C139.746 46.5186 139.985 46.7432 140.298 46.9092C140.61 47.0654 140.977 47.1436 141.396 47.1436C142.031 47.1436 142.583 47.0166 143.052 46.7627C143.52 46.5088 143.882 46.1963 144.136 45.8252C144.399 45.4541 144.536 45.1025 144.546 44.7705L145.659 46.5576C145.503 46.958 145.288 47.373 145.015 47.8027C144.751 48.2324 144.414 48.6377 144.004 49.0186C143.594 49.3896 143.101 49.6973 142.524 49.9414C141.948 50.1758 141.265 50.293 140.474 50.293C139.468 50.293 138.555 50.0928 137.734 49.6924C136.924 49.2822 136.279 48.7207 135.801 48.0078C135.332 47.2852 135.098 46.4648 135.098 45.5469C135.098 44.7168 135.254 43.9795 135.566 43.335C135.879 42.6904 136.338 42.1484 136.943 41.709C137.559 41.2598 138.325 40.9229 139.243 40.6982C140.161 40.4639 141.226 40.3467 142.437 40.3467H144.883ZM156.045 37.6074V50H151.826V34.1504H155.796L156.045 37.6074ZM160.82 34.0479L160.747 37.959C160.542 37.9297 160.293 37.9053 160 37.8857C159.717 37.8564 159.458 37.8418 159.224 37.8418C158.628 37.8418 158.11 37.9199 157.671 38.0762C157.241 38.2227 156.88 38.4424 156.587 38.7354C156.304 39.0283 156.089 39.3848 155.942 39.8047C155.806 40.2246 155.728 40.7031 155.708 41.2402L154.858 40.9766C154.858 39.9512 154.961 39.0088 155.166 38.1494C155.371 37.2803 155.669 36.5234 156.06 35.8789C156.46 35.2344 156.948 34.7363 157.524 34.3848C158.101 34.0332 158.76 33.8574 159.502 33.8574C159.736 33.8574 159.976 33.877 160.22 33.916C160.464 33.9453 160.664 33.9893 160.82 34.0479Z"
			fill="white" />
	</g>
	<g clip-path="url(#clip0_91_635)">
		<path
			d="M72 53.102L72.2406 53.1643L72.4812 53.2268L72.7218 53.2896L72.9624 53.3525L73.203 53.4156L73.4436 53.4789L73.6842 53.5423L73.9248 53.6059L74.1654 53.6696L74.406 53.7334L74.6466 53.7972L74.8872 53.8612L75.1278 53.9251L75.3684 53.9892L75.609 54.0532L75.8496 54.1173L76.0902 54.1813L76.3308 54.2453L76.5714 54.3093L76.812 54.3732L77.0526 54.4371L77.2932 54.5008L77.5338 54.5645L77.7744 54.628L78.015 54.6914L78.2556 54.7546L78.4962 54.8177L78.7368 54.8806L78.9774 54.9433L79.218 55.0058L79.4586 55.068L79.6992 55.13L79.9398 55.1918L80.1805 55.2533L80.4211 55.3144L80.6617 55.3753L80.9023 55.4359L81.1429 55.4961L81.3835 55.556L81.6241 55.6155L81.8647 55.6746L82.1053 55.7333L82.3459 55.7917L82.5865 55.8496L82.8271 55.907L83.0677 55.9641L83.3083 56.0206L83.5489 56.0767L83.7895 56.1323L84.0301 56.1873L84.2707 56.2419L84.5113 56.2959L84.7519 56.3494L84.9925 56.4023L85.2331 56.4546L85.4737 56.5063L85.7143 56.5575L85.9549 56.608L86.1955 56.6579L86.4361 56.7072L86.6767 56.7558L86.9173 56.8038L87.1579 56.8511L87.3985 56.8977L87.6391 56.9436L87.8797 56.9888L88.1203 57.0333L88.3609 57.0771L88.6015 57.1201L88.8421 57.1624L89.0827 57.2039L89.3233 57.2446L89.5639 57.2846L89.8045 57.3237L90.0451 57.3621L90.2857 57.3996L90.5263 57.4364L90.7669 57.4723L91.0075 57.5073L91.2481 57.5415L91.4887 57.5749L91.7293 57.6074L91.9699 57.639L92.2105 57.6698L92.4511 57.6997L92.6917 57.7286L92.9323 57.7567L93.1729 57.7839L93.4135 57.8101L93.6541 57.8354L93.8947 57.8598L94.1353 57.8833L94.3759 57.9058L94.6165 57.9274L94.8571 57.948L95.0977 57.9677L95.3383 57.9864L95.5789 58.0042L95.8195 58.021L96.0602 58.0368L96.3008 58.0516L96.5414 58.0655L96.782 58.0783L97.0226 58.0902L97.2632 58.1011L97.5038 58.111L97.7444 58.1199L97.985 58.1278L98.2256 58.1347L98.4662 58.1407L98.7068 58.1456L98.9474 58.1495L99.188 58.1524L99.4286 58.1543L99.6692 58.1551L99.9098 58.155L100.15 58.1539L100.391 58.1518L100.632 58.1486L100.872 58.1445L101.113 58.1393L101.353 58.1332L101.594 58.126L101.835 58.1179L102.075 58.1087L102.316 58.0986L102.556 58.0875L102.797 58.0754L103.038 58.0623L103.278 58.0482L103.519 58.0331L103.759 58.017L104 58L104.241 57.982L104.481 57.9631L104.722 57.9432L104.962 57.9223L105.203 57.9005L105.444 57.8778L105.684 57.8541L105.925 57.8294L106.165 57.8039L106.406 57.7774L106.647 57.7501L106.887 57.7218L107.128 57.6926L107.368 57.6625L107.609 57.6315L107.85 57.5997L108.09 57.567L108.331 57.5334L108.571 57.499L108.812 57.4637L109.053 57.4276L109.293 57.3907L109.534 57.353L109.774 57.3144L110.015 57.2751L110.256 57.2349L110.496 57.194L110.737 57.1523L110.977 57.1099L111.218 57.0667L111.459 57.0227L111.699 56.9781L111.94 56.9327L112.18 56.8866L112.421 56.8398L112.662 56.7924L112.902 56.7443L113.143 56.6955L113.383 56.646L113.624 56.596L113.865 56.5453L114.105 56.494L114.346 56.4421L114.586 56.3896L114.827 56.3366L115.068 56.283L115.308 56.2289L115.549 56.1742L115.789 56.119L116.03 56.0633L116.271 56.0071L116.511 55.9504L116.752 55.8933L116.992 55.8358L117.233 55.7777L117.474 55.7193L117.714 55.6605L117.955 55.6013L118.195 55.5417L118.436 55.4817L118.677 55.4214L118.917 55.3608L119.158 55.2998L119.398 55.2386L119.639 55.177L119.88 55.1152L120.12 55.0531L120.361 54.9908L120.602 54.9283L120.842 54.8656L121.083 54.8026L121.323 54.7395L121.564 54.6762L121.805 54.6128L122.045 54.5492L122.286 54.4855L122.526 54.4218L122.767 54.3579L123.008 54.294L123.248 54.23L123.489 54.166L123.729 54.1019L123.97 54.0379L124.211 53.9738L124.451 53.9098L124.692 53.8458L124.932 53.7819L125.173 53.7181L125.414 53.6543L125.654 53.5907L125.895 53.5271L126.135 53.4638L126.376 53.4005L126.617 53.3374L126.857 53.2745L127.098 53.2118L127.338 53.1494L127.579 53.0871L127.82 53.0251L128.06 52.9634L128.301 52.9019L128.541 52.8407L128.782 52.7798L129.023 52.7193L129.263 52.659L129.504 52.5992L129.744 52.5397L129.985 52.4805L130.226 52.4218L130.466 52.3635L130.707 52.3056L130.947 52.2481L131.188 52.1911L131.429 52.1345L131.669 52.0785L131.91 52.0229L132.15 51.9678L132.391 51.9133L132.632 51.8592L132.872 51.8058L133.113 51.7529L133.353 51.7005L133.594 51.6488L133.835 51.5976L134.075 51.5471L134.316 51.4972L134.556 51.4479L134.797 51.3993L135.038 51.3513L135.278 51.304L135.519 51.2574L135.759 51.2115L136 51.1663L136.241 51.1218L136.481 51.0781L136.722 51.035L136.962 50.9928L137.203 50.9513L137.444 50.9105L137.684 50.8706L137.925 50.8314L138.165 50.7931L138.406 50.7555L138.647 50.7188L138.887 50.6829L139.128 50.6478L139.368 50.6136L139.609 50.5802L139.85 50.5477L140.09 50.5161L140.331 50.4853L140.571 50.4555L140.812 50.4265L141.053 50.3984L141.293 50.3713L141.534 50.345L141.774 50.3197L142.015 50.2953L142.256 50.2718L142.496 50.2493L142.737 50.2277L142.977 50.2071L143.218 50.1874L143.459 50.1687L143.699 50.1509L143.94 50.1342L144.18 50.1183L144.421 50.1035L144.662 50.0897L144.902 50.0768L145.143 50.0649L145.383 50.054L145.624 50.0441L145.865 50.0352L146.105 50.0273L146.346 50.0204L146.586 50.0145L146.827 50.0096L147.068 50.0057L147.308 50.0028L147.549 50.0009L147.789 50L148.03 50.0001L148.271 50.0012L148.511 50.0034L148.752 50.0065L148.992 50.0107L149.233 50.0158L149.474 50.022L149.714 50.0291L149.955 50.0372L150.195 50.0464L150.436 50.0565L150.677 50.0677L150.917 50.0798L151.158 50.0929L151.398 50.107L151.639 50.122L151.88 50.1381L152.12 50.1551L152.361 50.1731L152.602 50.192L152.842 50.212L153.083 50.2328L153.323 50.2546L153.564 50.2774L153.805 50.3011L154.045 50.3257L154.286 50.3512L154.526 50.3777L154.767 50.4051L155.008 50.4334L155.248 50.4626L155.489 50.4926L155.729 50.5236L155.97 50.5554L156.211 50.5881L156.451 50.6217L156.692 50.6561L156.932 50.6914L157.173 50.7275L157.414 50.7644L157.654 50.8022L157.895 50.8407L158.135 50.8801L158.376 50.9202L158.617 50.9611L158.857 51.0028L159.098 51.0453L159.338 51.0885L159.579 51.1324L159.82 51.1771L160.06 51.2224L160.301 51.2685L160.541 51.3153L160.782 51.3628L161.023 51.4109L161.263 51.4597L161.504 51.5091L161.744 51.5592L161.985 51.6098L162.226 51.6611L162.466 51.713L162.707 51.7655L162.947 51.8185L163.188 51.8721L163.429 51.9263L163.669 51.981L163.91 52.0361L164.15 52.0918L164.391 52.148L164.632 52.2047L164.872 52.2618L165.113 52.3194L165.353 52.3774L165.594 52.4358L165.835 52.4946L166.075 52.5539L166.316 52.6135L166.556 52.6734L166.797 52.7337L167.038 52.7944L167.278 52.8553L167.519 52.9166L167.759 52.9781L168 53.0399"
			stroke="#3B5F82" stroke-opacity="0.3" stroke-width="1.73517" stroke-miterlimit="10"
			stroke-linecap="round" stroke-linejoin="round" />
	</g>
	<defs>
		<filter id="filter0_d_91_635" x="67.5107" y="24" width="96.8096" height="29.793"
			filterUnits="userSpaceOnUse" color-interpolation-filters="sRGB">
			<feFlood flood-opacity="0" result="BackgroundImageFix" />
			<feColorMatrix in="SourceAlpha" type="matrix"
				values="0 0 0 0 0 0 0 0 0 0 0 0 0 0 0 0 0 0 127 0" result="hardAlpha" />
			<feOffset />
			<feGaussianBlur stdDeviation="1.75" />
			<feColorMatrix type="matrix" values="0 0 0 0 1 0 0 0 0 1 0 0 0 0 1 0 0 0 1 0" />
			<feBlend mode="normal" in2="BackgroundImageFix" result="effect1_dropShadow_91_635" />
			<feBlend mode="normal" in="SourceGraphic" in2="effect1_dropShadow_91_635" result="shape" />
		</filter>
		<clipPath id="clip0_91_635">
			<rect width="94" height="47" fill="white" transform="translate(72 30)" />
		</clipPath>
	</defs>
</svg>