<svg width="20" height="19" viewBox="0 0 26 25" fill="none" xmlns="http://www.w3.org/2000/svg">
	<g clip-path="url(#clip0_751_1380)">
		<path
			d="M10.4755 0.244143C5.62196 1.19141 1.71083 5.09278 0.753798 9.93164C-1.05284 19.0625 7.18446 25.8691 13.3905 24.9072C15.4022 24.5947 16.3886 22.2412 15.4657 20.4297C14.3378 18.2129 15.9491 15.625 18.4393 15.625H22.3309C24.079 15.625 25.495 14.1797 25.4999 12.4365C25.4755 4.74121 18.4735 -1.31347 10.4755 0.244143ZM5.18739 15.625C4.32313 15.625 3.62489 14.9268 3.62489 14.0625C3.62489 13.1982 4.32313 12.5 5.18739 12.5C6.05165 12.5 6.74989 13.1982 6.74989 14.0625C6.74989 14.9268 6.05165 15.625 5.18739 15.625ZM6.74989 9.375C5.88563 9.375 5.18739 8.67676 5.18739 7.8125C5.18739 6.94824 5.88563 6.25 6.74989 6.25C7.61415 6.25 8.31239 6.94824 8.31239 7.8125C8.31239 8.67676 7.61415 9.375 6.74989 9.375ZM12.9999 6.25C12.1356 6.25 11.4374 5.55176 11.4374 4.6875C11.4374 3.82324 12.1356 3.125 12.9999 3.125C13.8642 3.125 14.5624 3.82324 14.5624 4.6875C14.5624 5.55176 13.8642 6.25 12.9999 6.25ZM19.2499 9.375C18.3856 9.375 17.6874 8.67676 17.6874 7.8125C17.6874 6.94824 18.3856 6.25 19.2499 6.25C20.1142 6.25 20.8124 6.94824 20.8124 7.8125C20.8124 8.67676 20.1142 9.375 19.2499 9.375Z"
			fill="#FF69B1" />
	</g>
	<defs>
		<clipPath id="clip0_751_1380">
			<rect width="25" height="25" fill="white" transform="translate(0.5)" />
		</clipPath>
	</defs>
</svg>