<svg width="20" height="19" viewBox="0 0 26 25" fill="none" xmlns="http://www.w3.org/2000/svg">
	<g clip-path="url(#clip0_751_1384)">
		<path
			d="M23.1562 12.5H19.25V9.375C19.25 7.65137 20.6514 6.25 22.375 6.25H22.7656C23.415 6.25 23.9375 5.72754 23.9375 5.07812V2.73438C23.9375 2.08496 23.415 1.5625 22.7656 1.5625H22.375C18.0586 1.5625 14.5625 5.05859 14.5625 9.375V21.0938C14.5625 22.3877 15.6123 23.4375 16.9062 23.4375H23.1562C24.4502 23.4375 25.5 22.3877 25.5 21.0938V14.8438C25.5 13.5498 24.4502 12.5 23.1562 12.5ZM9.09375 12.5H5.1875V9.375C5.1875 7.65137 6.58887 6.25 8.3125 6.25H8.70312C9.35254 6.25 9.875 5.72754 9.875 5.07812V2.73438C9.875 2.08496 9.35254 1.5625 8.70312 1.5625H8.3125C3.99609 1.5625 0.5 5.05859 0.5 9.375V21.0938C0.5 22.3877 1.5498 23.4375 2.84375 23.4375H9.09375C10.3877 23.4375 11.4375 22.3877 11.4375 21.0938V14.8438C11.4375 13.5498 10.3877 12.5 9.09375 12.5Z"
			fill="black" />
	</g>
	<defs>
		<clipPath id="clip0_751_1384">
			<rect width="25" height="25" fill="white" transform="translate(0.5)" />
		</clipPath>
	</defs>
</svg>