<svg width="20" height="19" viewBox="0 0 26 25" fill="none" xmlns="http://www.w3.org/2000/svg">
	<g clip-path="url(#clip0_751_1387)">
		<path
			d="M24.1111 6.94446H22.0278V10.7639C22.0278 10.9557 21.8724 11.1111 21.6806 11.1111H20.9861C20.7943 11.1111 20.6389 10.9557 20.6389 10.7639V6.94446H17.8611V10.7639C17.8611 10.9557 17.7057 11.1111 17.5139 11.1111H16.8194C16.6276 11.1111 16.4722 10.9557 16.4722 10.7639V6.94446H13.6944V10.7639C13.6944 10.9557 13.5391 11.1111 13.3472 11.1111H12.6528C12.4609 11.1111 12.3056 10.9557 12.3056 10.7639V6.94446H9.52778V10.7639C9.52778 10.9557 9.3724 11.1111 9.18056 11.1111H8.48611C8.29427 11.1111 8.13889 10.9557 8.13889 10.7639V6.94446H5.36111V10.7639C5.36111 10.9557 5.20573 11.1111 5.01389 11.1111H4.31944C4.1276 11.1111 3.97222 10.9557 3.97222 10.7639V6.94446H1.88889C1.12196 6.94446 0.5 7.56642 0.5 8.33335V16.6667C0.5 17.4336 1.12196 18.0556 1.88889 18.0556H24.1111C24.878 18.0556 25.5 17.4336 25.5 16.6667V8.33335C25.5 7.56642 24.878 6.94446 24.1111 6.94446Z"
			fill="black" />
	</g>
	<defs>
		<clipPath id="clip0_751_1387">
			<rect width="25" height="25" fill="white" transform="translate(0.5)" />
		</clipPath>
	</defs>
</svg>