<svg width="20" height="19" viewBox="0 0 26 25" fill="none" xmlns="http://www.w3.org/2000/svg">
	<g clip-path="url(#clip0_751_1382)">
		<path
			d="M24.7188 10.9375H14.8506L10.5942 9.62744C10.1077 9.47756 9.69105 9.15808 9.42006 8.72708C9.14907 8.29607 9.04171 7.78215 9.11749 7.2787C9.19327 6.77525 9.44716 6.3157 9.83302 5.98357C10.2189 5.65143 10.7111 5.46876 11.2202 5.46875H14.4814C14.9342 5.46842 15.378 5.59425 15.7632 5.83213C16.1484 6.07 16.4597 6.4105 16.6621 6.81543C16.7548 7.00063 16.9173 7.14144 17.1138 7.2069C17.3103 7.27237 17.5247 7.25714 17.71 7.16455L19.8066 6.11621C19.9919 6.02359 20.1328 5.86117 20.1984 5.66467C20.264 5.46817 20.2488 5.25368 20.1562 5.06836L20.1304 5.01953C19.6115 3.98073 18.8134 3.10702 17.8257 2.4964C16.838 1.88578 15.6998 1.56239 14.5386 1.5625H11.2183C10.3764 1.56318 9.54392 1.73989 8.77435 2.08127C8.00478 2.42266 7.31509 2.92118 6.74955 3.54483C6.18401 4.16849 5.75511 4.9035 5.4904 5.7027C5.22568 6.50189 5.13099 7.3476 5.2124 8.18555C5.31006 9.20557 5.70557 10.1304 6.27588 10.9375H1.28125C1.07405 10.9375 0.875336 11.0198 0.728823 11.1663C0.58231 11.3128 0.5 11.5115 0.5 11.7188L0.5 13.2812C0.5 13.4885 0.58231 13.6872 0.728823 13.8337C0.875336 13.9802 1.07405 14.0625 1.28125 14.0625H24.7188C24.926 14.0625 25.1247 13.9802 25.2712 13.8337C25.4177 13.6872 25.5 13.4885 25.5 13.2812V11.7188C25.5 11.5115 25.4177 11.3128 25.2712 11.1663C25.1247 11.0198 24.926 10.9375 24.7188 10.9375ZM15.918 15.625C16.2201 15.8135 16.4694 16.0758 16.6422 16.3871C16.8151 16.6985 16.906 17.0487 16.9062 17.4048C16.9057 17.9686 16.6815 18.5092 16.2829 18.9079C15.8842 19.3065 15.3436 19.5307 14.7798 19.5312H11.5186C11.0658 19.5316 10.622 19.4057 10.2368 19.1679C9.85162 18.93 9.54034 18.5895 9.33789 18.1846C9.24518 17.9994 9.08273 17.8586 8.88624 17.7931C8.68975 17.7276 8.4753 17.7429 8.29004 17.8354L6.19336 18.8838C6.00807 18.9764 5.86716 19.1388 5.8016 19.3353C5.73604 19.5318 5.7512 19.7463 5.84375 19.9316L5.86963 19.9805C6.38854 21.0193 7.18659 21.893 8.17427 22.5036C9.16196 23.1142 10.3002 23.4376 11.4614 23.4375H14.7817C15.6236 23.4368 16.4561 23.2601 17.2257 22.9187C17.9952 22.5773 18.6849 22.0788 19.2505 21.4552C19.816 20.8315 20.2449 20.0965 20.5096 19.2973C20.7743 18.4981 20.869 17.6524 20.7876 16.8145C20.7443 16.4096 20.6569 16.0108 20.5269 15.625H15.918Z"
			fill="black" />
	</g>
	<defs>
		<clipPath id="clip0_751_1382">
			<rect width="25" height="25" fill="white" transform="translate(0.5)" />
		</clipPath>
	</defs>
</svg>