<svg width="20" height="19" viewBox="0 0 26 25" fill="none" xmlns="http://www.w3.org/2000/svg">
	<path
		d="M3.625 3.125H5.1875V10.9375C5.1875 15.2451 8.69238 18.75 13 18.75C17.3076 18.75 20.8125 15.2451 20.8125 10.9375V3.125H22.375C22.5822 3.125 22.7809 3.04269 22.9274 2.89618C23.0739 2.74966 23.1562 2.55095 23.1562 2.34375V0.78125C23.1562 0.57405 23.0739 0.375336 22.9274 0.228823C22.7809 0.08231 22.5822 0 22.375 0L15.3438 0C15.1365 0 14.9378 0.08231 14.7913 0.228823C14.6448 0.375336 14.5625 0.57405 14.5625 0.78125V2.34375C14.5625 2.55095 14.6448 2.74966 14.7913 2.89618C14.9378 3.04269 15.1365 3.125 15.3438 3.125H16.9062V10.9375C16.9063 11.9735 16.4947 12.9671 15.7621 13.6996C15.0296 14.4322 14.036 14.8438 13 14.8438C11.964 14.8438 10.9704 14.4322 10.2379 13.6996C9.5053 12.9671 9.09375 11.9735 9.09375 10.9375V3.125H10.6562C10.8635 3.125 11.0622 3.04269 11.2087 2.89618C11.3552 2.74966 11.4375 2.55095 11.4375 2.34375V0.78125C11.4375 0.57405 11.3552 0.375336 11.2087 0.228823C11.0622 0.08231 10.8635 0 10.6562 0L3.625 0C3.4178 0 3.21909 0.08231 3.07257 0.228823C2.92606 0.375336 2.84375 0.57405 2.84375 0.78125V2.34375C2.84375 2.55095 2.92606 2.74966 3.07257 2.89618C3.21909 3.04269 3.4178 3.125 3.625 3.125ZM23.1562 21.875H2.84375C2.63655 21.875 2.43784 21.9573 2.29132 22.1038C2.14481 22.2503 2.0625 22.449 2.0625 22.6562V24.2188C2.0625 24.426 2.14481 24.6247 2.29132 24.7712C2.43784 24.9177 2.63655 25 2.84375 25H23.1562C23.3635 25 23.5622 24.9177 23.7087 24.7712C23.8552 24.6247 23.9375 24.426 23.9375 24.2188V22.6562C23.9375 22.449 23.8552 22.2503 23.7087 22.1038C23.5622 21.9573 23.3635 21.875 23.1562 21.875Z"
		fill="black" />
</svg>