<svg width="26" height="20" viewBox="0 0 26 20" fill="none" xmlns="http://www.w3.org/2000/svg">
<path d="M17 19V17C17 15.9391 16.5786 14.9217 15.8284 14.1716C15.0783 13.4214 14.0609 13 13 13H6C4.93913 13 3.92172 13.4214 3.17157 14.1716C2.42143 14.9217 2 15.9391 2 17V19" stroke="#9CACB0" stroke-width="2" stroke-linecap="round" stroke-linejoin="round"/>
<path d="M9.5 9C11.7091 9 13.5 7.20914 13.5 5C13.5 2.79086 11.7091 1 9.5 1C7.29086 1 5.5 2.79086 5.5 5C5.5 7.20914 7.29086 9 9.5 9Z" stroke="#9CACB0" stroke-width="2" stroke-linecap="round" stroke-linejoin="round"/>
<path d="M21 6V12" stroke="#9CACB0" stroke-width="2" stroke-linecap="round" stroke-linejoin="round"/>
<path d="M24 9H18" stroke="#9CACB0" stroke-width="2" stroke-linecap="round" stroke-linejoin="round"/>
</svg>
